<svg id="Layer_1" enable-background="new 0 0 512.071 512.071" height="512" viewBox="0 0 512.071 512.071" width="512" xmlns="http://www.w3.org/2000/svg"><g><path d="m512.035 338.906c0-.013-.002-.026-.002-.039v-150.298c0-4.143-3.358-7.5-7.5-7.5s-7.5 3.357-7.5 7.5v142.837h-18.131v-249.285c0-8.703-7.081-15.783-15.783-15.783h-38.044c-1.095-5.32-4.826-9.697-10.134-11.593l-18.317-6.542h74.776c14.134 0 25.632 11.499 25.632 25.633v84.232c0 4.143 3.358 7.5 7.5 7.5s7.5-3.357 7.5-7.5v-84.232c0-22.405-18.227-40.633-40.632-40.633h-115.792c-.285 0-.565.019-.842.05l-87.85-31.375c-7.017-2.504-14.744-2.505-21.76 0l-87.81 31.361c-.234-.022-.47-.036-.71-.036h-115.967c-22.405 0-40.632 18.228-40.632 40.633v265.04c0 .01-.001.019-.001.029s.001.019.001.019v33.115c0 22.404 18.228 40.632 40.632 40.632h34.699c4.142 0 7.5-3.357 7.5-7.5s-3.358-7.5-7.5-7.5h-34.699c-14.134 0-25.632-11.498-25.632-25.632v-25.634h481.997v25.634c0 14.134-11.499 25.632-25.632 25.632h-366.034c-4.142 0-7.5 3.357-7.5 7.5s3.358 7.5 7.5 7.5h80.046l-6.409 51.268h-38.935c-4.142 0-7.5 3.357-7.5 7.5v33.132c0 4.143 3.358 7.5 7.5 7.5h231.933c4.142 0 7.5-3.357 7.5-7.5v-33.132c0-4.143-3.358-7.5-7.5-7.5h-38.936l-6.409-51.268h144.744c22.405 0 40.632-18.228 40.632-40.632v-33.095c-.001-.013.001-.025.001-.038zm-48.132-256.785v249.284h-415.735v-249.284c0-.432.352-.783.783-.783h42.885c1.501 1.344 3.284 2.418 5.293 3.136l52.007 18.574v111.609c0 13.27 10.796 24.066 24.067 24.066h165.666c13.271 0 24.067-10.796 24.067-24.066v-111.61l42.079-15.028.846 95.147c-14.202 3.414-24.791 16.215-24.791 31.45 0 8.495 3.296 16.231 8.671 22.009l-6.961 41.663c-.764 4.585.521 9.249 3.526 12.797 3.005 3.547 7.395 5.581 12.043 5.581h30.144c4.649 0 9.038-2.034 12.043-5.582 3.005-3.547 4.29-8.212 3.525-12.8l-6.96-41.659c5.374-5.778 8.67-13.514 8.67-22.009 0-15.277-10.647-28.105-24.908-31.477l-.903-101.566c.092-.079.188-.154.278-.234h42.885c.428-.001.78.351.78.782zm-218.749 55.218c3.509 1.254 7.194 1.881 10.881 1.88 3.686 0 7.373-.626 10.88-1.879l81.02-28.936v73.861h-183.8v-73.86zm-81.019 59.926h183.8v17.392c0 4.999-4.067 9.066-9.067 9.066h-165.666c-4.999 0-9.067-4.067-9.067-9.066zm265.128 83.488c.015.089.06.358-.175.635s-.508.277-.598.277h-30.144c-.09 0-.363 0-.598-.277s-.19-.547-.176-.632l5.908-35.359c3.133 1.014 6.471 1.568 9.937 1.568s6.804-.554 9.937-1.568zm-15.844-48.788c-9.567 0-17.35-7.783-17.35-17.35s7.783-17.351 17.35-17.351c9.566 0 17.35 7.783 17.35 17.351-.001 9.567-7.784 17.35-17.35 17.35zm-163.22-215.96c1.882-.672 3.859-1.008 5.836-1.008s3.954.336 5.835 1.008l148.027 52.867c.219.078.519.186.519.737 0 .552-.3.659-.52.737l-148.026 52.868c-3.763 1.344-7.907 1.344-11.67 0v-.001l-148.026-52.865c-.22-.079-.52-.187-.52-.738 0-.552.3-.659.52-.737zm-235.162 57.831c0-14.134 11.499-25.633 25.632-25.633h74.777l-18.317 6.542c-5.308 1.896-9.039 6.273-10.134 11.593h-38.044c-8.703 0-15.783 7.08-15.783 15.783v249.284h-18.131zm231.932 338.835h18.133v18.133h-18.133zm117.533 84.4h-216.932v-18.132h216.933v18.132zm-46.553-33.132h-123.828l6.409-51.268h31.438v25.633c0 4.143 3.358 7.5 7.5 7.5h33.133c4.142 0 7.5-3.357 7.5-7.5v-25.633h31.438z"/></g></svg>